<svg xmlns="http://www.w3.org/2000/svg" xmlns:xlink="http://www.w3.org/1999/xlink" viewBox="0 0 1083.96 1113.51"><defs><style>.cls-1{fill:url(#linear-gradient);}.cls-2{fill:url(#linear-gradient-2);}.cls-3{fill:url(#linear-gradient-3);}.cls-4{fill:url(#linear-gradient-4);}</style><linearGradient id="linear-gradient" x1="-436.17" y1="2694.03" x2="633.96" y2="2694.03" gradientTransform="matrix(-0.88, -0.48, 0.48, -0.88, -759.1, 2973.12)" gradientUnits="userSpaceOnUse"><stop offset="0" stop-color="#fd8200"/><stop offset="1" stop-color="#f94401"/></linearGradient><linearGradient id="linear-gradient-2" x1="369.16" y1="2298.54" x2="394.8" y2="2298.54" xlink:href="#linear-gradient"/><linearGradient id="linear-gradient-3" x1="241.62" y1="319.86" x2="434.38" y2="319.86" gradientTransform="matrix(1, 0, 0, 1, 0, 0)" xlink:href="#linear-gradient"/><linearGradient id="linear-gradient-4" x1="-507.76" y1="2506.21" x2="90.01" y2="2506.21" xlink:href="#linear-gradient"/></defs><g id="Layer_2" data-name="Layer 2"><g id="Layer_1-2" data-name="Layer 1"><polygon class="cls-1" points="1083.96 425.44 1012.48 647.37 711.51 742.7 704.38 744.98 449.8 825.63 257.04 886.68 188.86 908.31 187.3 907.11 20.97 781.77 20.73 781.59 20.67 781.59 0.96 766.67 0 765.95 0 268.22 192.75 131.19 192.75 704.89 257.04 684.52 449.8 623.47 567.95 586.08 1083.12 422.86 1083.96 425.44"/><polygon class="cls-2" points="20.67 781.59 0.12 766.91 0 766.85 0 765.95 0.96 766.67 20.67 781.59"/><path class="cls-3" d="M434.36,77.39c0-.17,0-.26,0-.26-1.49-62.94-73-99.17-124.75-62.38l-6.15,4.38a147,147,0,0,0-61.83,119.81V639.72l126-39.53V272.7c0-23.48,10.21-35.74,10.21-35.74,48.2-45.82,55.63-116.41,56.52-146V79.14C434.38,78.55,434.37,78,434.36,77.39Zm-29.3,54.33c-12,50-49.39,83.91-83.58,75.72s-52.2-55.36-40.23-105.36,49.4-83.91,83.59-75.73S417,81.71,405.06,131.72Z"/><polygon class="cls-4" points="993.66 737.77 921.22 962.94 445.84 1113.51 261.24 974.26 260.04 973.42 257.04 971.14 257.04 931.12 449.8 870.66 449.8 910.09 993.66 737.77"/></g></g></svg>